<?xml version="1.0" standalone="no"?>
<!DOCTYPE svg PUBLIC "-//W3C//DTD SVG 20010904//EN"
 "http://www.w3.org/TR/2001/REC-SVG-20010904/DTD/svg10.dtd">
<svg version="1.0" xmlns="http://www.w3.org/2000/svg"
 width="200.000000pt" height="200.000000pt" viewBox="0 0 200.000000 200.000000"
 preserveAspectRatio="xMidYMid meet">
<metadata>
Created by potrace 1.14, written by Peter Selinger 2001-2017
</metadata>
<g transform="translate(0.000000,200.000000) scale(0.100000,-0.100000)"
fill="#000000" stroke="none">
<path d="M0 1000 l0 -1000 1000 0 1000 0 0 1000 0 1000 -1000 0 -1000 0 0
-1000z m1490 499 c108 -50 178 -136 207 -253 14 -58 14 -77 4 -134 -21 -112
-46 -144 -285 -374 -122 -117 -265 -255 -318 -307 l-97 -94 -197 189 c-108
104 -230 221 -271 259 l-75 70 302 290 c167 160 320 303 341 318 69 51 132 68
239 64 76 -2 106 -8 150 -28z m-1078 -1071 c2 -21 0 -38 -4 -38 -4 0 -7 24 -7
53 1 54 5 49 11 -15z m928 30 c1 -30 2 -31 14 -15 17 22 29 22 17 -1 -6 -11
-6 -24 0 -35 13 -22 0 -22 -17 1 -13 16 -13 16 -14 0 0 -10 -4 -18 -10 -18 -5
0 -10 23 -10 50 0 28 5 50 10 50 6 0 10 -15 10 -32z m-872 -27 c2 -13 -1 -28
-6 -33 -6 -6 -8 0 -5 16 4 20 0 28 -18 36 l-24 10 25 -3 c18 -1 26 -9 28 -26z
m34 -11 c-6 -41 -12 -38 -12 6 0 19 4 33 8 30 5 -3 7 -19 4 -36z m65 -12 c-2
-13 -4 -5 -4 17 -1 22 1 32 4 23 2 -10 2 -28 0 -40z m89 17 c1 -27 0 -27 -3
-3 -3 18 -11 28 -26 31 -18 3 -18 4 3 3 21 -1 25 -6 26 -31z m41 -17 c-2 -13
-4 -5 -4 17 -1 22 1 32 4 23 2 -10 2 -28 0 -40z m60 12 c1 -33 1 -33 -5 -6 -4
16 -16 33 -27 37 -18 8 -17 8 5 6 21 -2 25 -7 27 -37z m697 24 c4 -11 -1 -18
-14 -21 -25 -7 -26 -20 -2 -26 11 -3 7 -5 -10 -6 -28 -1 -38 17 -30 52 5 22
48 23 56 1z m84 -21 c2 -19 -1 -33 -7 -33 -6 0 -11 11 -11 25 0 16 -6 25 -15
25 -9 0 -15 -9 -15 -25 0 -14 -4 -25 -10 -25 -5 0 -10 15 -10 34 0 32 2 34 33
33 28 -2 32 -6 35 -34z m39 5 l11 -33 7 33 c4 17 12 32 17 32 10 0 2 -48 -15
-90 -9 -23 -11 -23 -15 -5 -2 11 -8 25 -12 30 -12 16 -21 65 -12 65 5 0 14
-15 19 -32z m-964 -18 c-3 -11 -9 -17 -15 -14 -5 3 -4 12 3 20 16 19 18 18 12
-6z"/>
<path d="M1278 1272 c-20 -11 -130 -109 -244 -218 l-206 -199 83 -77 c46 -43
87 -78 90 -78 15 0 425 402 438 430 13 27 13 36 1 72 -26 72 -97 103 -162 70z"/>
<path d="M1415 440 c-3 -5 1 -10 9 -10 9 0 16 5 16 10 0 6 -4 10 -9 10 -6 0
-13 -4 -16 -10z"/>
</g>
</svg>
